<?xml version="1.0" encoding="UTF-8" standalone="no"?>
<svg
   width="600"
   height="600"
   version="1.1"
   viewBox="0 0 450 450"
   id="svg139"
   sodipodi:docname="bell.svg"
   inkscape:version="1.1.1 (1:1.1+202109281949+c3084ef5ed)"
   xmlns:inkscape="http://www.inkscape.org/namespaces/inkscape"
   xmlns:sodipodi="http://sodipodi.sourceforge.net/DTD/sodipodi-0.dtd"
   xmlns="http://www.w3.org/2000/svg"
   xmlns:svg="http://www.w3.org/2000/svg">
  <sodipodi:namedview
     id="namedview141"
     pagecolor="#ffffff"
     bordercolor="#999999"
     borderopacity="1"
     inkscape:pageshadow="0"
     inkscape:pageopacity="0"
     inkscape:pagecheckerboard="0"
     inkscape:document-units="pt"
     showgrid="false"
     inkscape:zoom="0.88821429"
     inkscape:cx="466.66666"
     inkscape:cy="377.16124"
     inkscape:window-width="1920"
     inkscape:window-height="1015"
     inkscape:window-x="1024"
     inkscape:window-y="0"
     inkscape:window-maximized="1"
     inkscape:current-layer="svg139"
     units="px" />
  <defs
     id="defs65">
    <symbol
       id="u"
       overflow="visible">
      <path
         d="M 6.7656,-0.40625 C 6.42185,-0.22656 6.05466,-0.09375 5.6718,0 5.2968,0.09375 4.90618,0.14062 4.4999,0.14062 c -1.2305,0 -2.2031,-0.34375 -2.9219,-1.0312 -0.7188,-0.68745 -1.0781,-1.6133 -1.0781,-2.7812 0,-1.1758 0.35938,-2.1094 1.0781,-2.7969 0.71872,-0.6875 1.6914,-1.0312 2.9219,-1.0312 0.40625,0 0.79688,0.046875 1.1719,0.14062 0.38281,0.085937 0.75,0.21875 1.0938,0.40625 v 1.5156 C 6.42185,-5.67569 6.0781,-5.84757 5.7344,-5.95303 5.39065,-6.06631 5.03128,-6.12491 4.6563,-6.12491 c -0.67969,0 -1.2148,0.21875 -1.6094,0.65625 -0.38672,0.42969 -0.57812,1.0273 -0.57812,1.7969 0,0.76172 0.19141,1.3594 0.57812,1.7969 0.39453,0.42969 0.92969,0.64062 1.6094,0.64062 0.375,0 0.73438,-0.050781 1.0781,-0.15625 0.34375,-0.11328 0.6875,-0.29688 1.0312,-0.54688 z"
         id="path2" />
    </symbol>
    <symbol
       id="c"
       overflow="visible">
      <path
         d="M 4.9531,-4.0156 C 4.79685,-4.085913 4.6406,-4.1406 4.48435,-4.17185 4.33591,-4.210913 4.18747,-4.23435 4.03123,-4.23435 c -0.44922,0 -0.79688,0.14844 -1.0469,0.4375 -0.25,0.29297 -0.375,0.71094 -0.375,1.25 V 5e-5 h -1.7656 v -5.5312 h 1.7656 v 0.90625 c 0.22656,-0.35156 0.48828,-0.61328 0.78125,-0.78125 0.30078,-0.16406 0.65625,-0.25 1.0625,-0.25 0.0625,0 0.125,0.00781 0.1875,0.015625 0.070313,0 0.17578,0.00781 0.3125,0.015625 z"
         id="path5" />
    </symbol>
    <symbol
       id="a"
       overflow="visible">
      <path
         d="m 6.375,-2.7812 v 0.5 H 2.2344 c 0.039063,0.41797 0.19141,0.73047 0.45312,0.9375 0.25781,0.21094 0.61719,0.3125 1.0781,0.3125 0.36328,0 0.73828,-0.050781 1.125,-0.15625 0.39453,-0.11328 0.80078,-0.28516 1.2188,-0.51562 v 1.375 c -0.41797,0.15625 -0.83984,0.27344 -1.2656,0.34375 -0.41797,0.082031 -0.83594,0.125 -1.25,0.125 -1,0 -1.7773,-0.25 -2.3281,-0.75 -0.55469,-0.50781 -0.82812,-1.2266 -0.82812,-2.1562 0,-0.89453 0.26953,-1.5977 0.8125,-2.1094 0.53906,-0.51953 1.2891,-0.78125 2.25,-0.78125 0.86328,0 1.5547,0.26172 2.0781,0.78125 0.53125,0.52344 0.79688,1.2188 0.79688,2.0938 z M 4.5469,-3.35932 c 0,-0.34375 -0.10156,-0.61328 -0.29688,-0.8125 -0.1875,-0.20703 -0.44531,-0.3125 -0.76562,-0.3125 -0.34375,0 -0.625,0.10156 -0.84375,0.29688 -0.21094,0.1875 -0.33984,0.46484 -0.39062,0.82812 z"
         id="path8" />
    </symbol>
    <symbol
       id="f"
       overflow="visible">
      <path
         d="m 3.3281,-2.4844 c -0.36719,0 -0.64062,0.0625 -0.82812,0.1875 -0.1875,0.125 -0.28125,0.30859 -0.28125,0.54688 0,0.23047 0.070312,0.40625 0.21875,0.53125 0.15625,0.125 0.36328,0.1875 0.625,0.1875 0.33203,0 0.61328,-0.11719 0.84375,-0.35938 0.22656,-0.23828 0.34375,-0.53516 0.34375,-0.89062 V -2.48439 Z M 6.0312,-3.15628 V -8e-5 H 4.25 v -0.8125 C 4.00781,-0.47664 3.73828,-0.23446 3.4375,-0.0782 3.14453,0.06633 2.78516,0.14055 2.3594,0.14055 c -0.57422,0 -1.0391,-0.16406 -1.3906,-0.5 -0.35547,-0.33203 -0.53125,-0.76562 -0.53125,-1.2969 0,-0.64453 0.21875,-1.1172 0.65625,-1.4219 C 1.53911,-3.39075 2.2422,-3.547 3.2032,-3.547 h 1.0469 v -0.125 c 0,-0.28125 -0.11719,-0.48438 -0.34375,-0.60938 -0.21875,-0.13281 -0.5625,-0.20312 -1.0312,-0.20312 -0.375,0 -0.72656,0.039063 -1.0469,0.10938 -0.32422,0.074219 -0.625,0.1875 -0.90625,0.34375 v -1.3438 c 0.375,-0.09375 0.75,-0.16016 1.125,-0.20312 0.38281,-0.050781 0.76953,-0.078125 1.1562,-0.078125 1,0 1.7188,0.19922 2.1562,0.59375 0.44531,0.38672 0.67188,1.0234 0.67188,1.9062 z"
         id="path11" />
    </symbol>
    <symbol
       id="b"
       overflow="visible">
      <path
         d="m 2.7812,-7.0938 v 1.5625 h 1.8125 v 1.2656 H 2.7812 v 2.3438 c 0,0.26172 0.046875,0.4375 0.14062,0.53125 0.10156,0.085937 0.3125,0.125 0.625,0.125 H 4.45307 V -5e-5 h -1.5156 c -0.69922,0 -1.1953,-0.14453 -1.4844,-0.4375 -0.29297,-0.28906 -0.4375,-0.78516 -0.4375,-1.4844 v -2.3438 h -0.875 v -1.2656 h 0.875 v -1.5625 z"
         id="path14" />
    </symbol>
    <symbol
       id="j"
       overflow="visible">
      <path
         d="M 4.6094,-4.7188 V -7.6876 H 6.3906 V -1e-4 H 4.6094 V -0.79698 C 4.36721,-0.47276 4.09768,-0.23448 3.7969,-0.07823 3.50393,0.0663 3.16409,0.14052 2.7813,0.14052 c -0.67969,0 -1.2344,-0.26953 -1.6719,-0.8125 -0.4375,-0.53906 -0.65625,-1.2383 -0.65625,-2.0938 0,-0.84375 0.21875,-1.5352 0.65625,-2.0781 0.4375,-0.53906 0.99219,-0.8125 1.6719,-0.8125 0.38281,0 0.72266,0.078125 1.0156,0.23438 0.30078,0.14844 0.57031,0.38281 0.8125,0.70312 z m -1.1562,3.5781 c 0.375,0 0.66016,-0.13281 0.85938,-0.40625 0.19531,-0.28125 0.29688,-0.6875 0.29688,-1.2188 0,-0.51953 -0.10156,-0.91406 -0.29688,-1.1875 C 4.11336,-4.2345 3.8282,-4.37513 3.4532,-4.37513 c -0.38672,0 -0.67969,0.14062 -0.875,0.42188 -0.19922,0.27344 -0.29688,0.66797 -0.29688,1.1875 0,0.53125 0.097656,0.9375 0.29688,1.2188 0.19531,0.27344 0.48828,0.40625 0.875,0.40625 z"
         id="path17" />
    </symbol>
    <symbol
       id="i"
       overflow="visible">
      <path
         d="m 3.7969,-1.1406 c 0.375,0 0.66016,-0.13281 0.85938,-0.40625 0.19531,-0.28125 0.29688,-0.6875 0.29688,-1.2188 0,-0.51953 -0.10156,-0.91406 -0.29688,-1.1875 C 4.45706,-4.2344 4.1719,-4.37503 3.7969,-4.37503 c -0.38672,0 -0.68359,0.14062 -0.89062,0.42188 -0.19922,0.27344 -0.29688,0.66797 -0.29688,1.1875 0,0.53125 0.097656,0.9375 0.29688,1.2188 0.20703,0.27344 0.50391,0.40625 0.89062,0.40625 z M 2.6094,-4.7187 c 0.25,-0.32031 0.51953,-0.55469 0.8125,-0.70312 0.30078,-0.15625 0.64453,-0.23438 1.0312,-0.23438 0.67578,0 1.2344,0.27344 1.6719,0.8125 0.4375,0.54297 0.65625,1.2344 0.65625,2.0781 0,0.85547 -0.21875,1.5547 -0.65625,2.0938 C 5.6875,-0.12883 5.12891,0.1407 4.4531,0.1407 4.06638,0.1407 3.72263,0.066481 3.4219,-0.07805 3.12893,-0.2343 2.8594,-0.47258 2.6094,-0.7968 V 8e-5 H 0.8438 v -7.6875 h 1.7656 z"
         id="path20" />
    </symbol>
    <symbol
       id="e"
       overflow="visible">
      <path
         d="m 0.125,-5.5312 h 1.7656 l 1.4844,3.75 1.2656,-3.75 H 6.4062 L 4.0781,0.5157 c -0.23047,0.625 -0.5,1.0547 -0.8125,1.2969 -0.3125,0.25 -0.72656,0.375 -1.2344,0.375 H 1.0156 V 1.0157 h 0.54688 c 0.30078,0 0.51953,-0.046875 0.65625,-0.14062 0.13281,-0.09375 0.23828,-0.26562 0.3125,-0.51562 l 0.0625,-0.14062 z"
         id="path23" />
    </symbol>
    <symbol
       id="h"
       overflow="visible">
      <path
         d="M 5.4062,-1.3438 H 2.4218 L 1.95305,0 h -1.9062 l 2.7344,-7.375 h 2.2656 L 7.78125,0 h -1.9219 z m -2.5,-1.3594 h 2.0156 l -1,-2.9375 z"
         id="path26" />
    </symbol>
    <symbol
       id="t"
       overflow="visible">
      <path
         d="m 0.84375,-5.5312 h 1.7656 V 0 h -1.7656 z m 0,-2.1562 h 1.7656 v 1.4531 h -1.7656 z"
         id="path29" />
    </symbol>
    <symbol
       id="s"
       overflow="visible">
      <path
         d="m 5.1719,-5.3594 v 1.3438 C 4.78518,-4.17185 4.41409,-4.28513 4.0625,-4.35935 c -0.34375,-0.082031 -0.67188,-0.125 -0.98438,-0.125 -0.33594,0 -0.58594,0.042969 -0.75,0.125 -0.16797,0.085937 -0.25,0.21484 -0.25,0.39062 0,0.13672 0.0625,0.24609 0.1875,0.32812 0.125,0.074219 0.34766,0.125 0.67188,0.15625 L 3.25,-3.437485 c 0.89453,0.11719 1.5,0.30859 1.8125,0.57812 0.3125,0.26172 0.46875,0.67188 0.46875,1.2344 0,0.58594 -0.21875,1.0273 -0.65625,1.3281 -0.42969,0.29297 -1.0742,0.4375 -1.9375,0.4375 -0.36719,0 -0.74609,-0.03125 -1.1406,-0.09375 -0.38672,-0.050781 -0.78125,-0.13281 -1.1875,-0.25 v -1.3438 c 0.35156,0.17969 0.71094,0.30859 1.0781,0.39062 0.375,0.085938 0.75,0.125 1.125,0.125 0.35156,0 0.61328,-0.046875 0.78125,-0.14062 0.17578,-0.09375 0.26562,-0.23438 0.26562,-0.42188 0,-0.16406 -0.0625,-0.28516 -0.1875,-0.35938 -0.11719,-0.070313 -0.35156,-0.12891 -0.70312,-0.17188 L 2.65625,-2.17193 C 1.86328,-2.26568 1.30465,-2.44537 0.98435,-2.71881 0.67185,-2.98834 0.5156,-3.39459 0.5156,-3.93761 c 0,-0.58203 0.20312,-1.0156 0.60938,-1.2969 0.40626,-0.2813 1.0195,-0.42188 1.8438,-0.42188 0.32031,0 0.66016,0.027344 1.0156,0.078125 0.36328,0.042969 0.75781,0.11719 1.1875,0.21875 z"
         id="path32" />
    </symbol>
    <symbol
       id="g"
       overflow="visible">
      <path
         d="M 6.4062,-3.3594 V 0 H 4.625 v -2.5625 c 0,-0.48828 -0.011719,-0.82031 -0.03125,-1 C 4.570312,-3.73828 4.535156,-3.875 4.48437,-3.96875 4.42187,-4.08203 4.32812,-4.17187 4.20312,-4.23437 c -0.11719,-0.0625 -0.25,-0.09375 -0.40625,-0.09375 -0.36719,0 -0.65625,0.14844 -0.875,0.4375 -0.21094,0.28125 -0.3125,0.67188 -0.3125,1.1719 V 8e-5 h -1.7656 v -7.6875 h 1.7656 v 2.9688 c 0.26953,-0.32031 0.55469,-0.55469 0.85938,-0.70312 0.30078,-0.15625 0.62891,-0.23438 0.98438,-0.23438 0.64453,0 1.1289,0.19922 1.4531,0.59375 0.33203,0.38672 0.5,0.95312 0.5,1.7031 z"
         id="path35" />
    </symbol>
    <symbol
       id="r"
       overflow="visible">
      <path
         d="m 4.4844,-7.6875 v 1.1719 H 3.51565 c -0.25,0 -0.42969,0.046875 -0.53125,0.14062 -0.09375,0.085938 -0.14062,0.24219 -0.14062,0.46875 v 0.375 h 1.5 v 1.2656 h -1.5 V -3e-5 h -1.7656 v -4.2656 H 0.18756 v -1.2656 h 0.89062 v -0.375 c 0,-0.60156 0.16406,-1.0508 0.5,-1.3438 0.33203,-0.28906 0.85156,-0.4375 1.5625,-0.4375 z"
         id="path38" />
    </symbol>
    <symbol
       id="d"
       overflow="visible">
      <path
         d="m 3.4844,-4.3906 c -0.39844,0 -0.69922,0.14062 -0.90625,0.42188 -0.19922,0.28125 -0.29688,0.68359 -0.29688,1.2031 0,0.53125 0.097656,0.9375 0.29688,1.2188 0.20703,0.28125 0.50781,0.42188 0.90625,0.42188 0.38281,0 0.67578,-0.14062 0.875,-0.42188 0.20703,-0.28125 0.3125,-0.6875 0.3125,-1.2188 0,-0.51953 -0.10547,-0.92188 -0.3125,-1.2031 C 4.16018,-4.24997 3.86721,-4.3906 3.4844,-4.3906 Z m 0,-1.2656 c 0.94531,0 1.6875,0.25781 2.2188,0.76562 0.53906,0.51172 0.8125,1.2188 0.8125,2.125 0,0.91797 -0.27344,1.6328 -0.8125,2.1406 -0.53125,0.51172 -1.2734,0.76562 -2.2188,0.76562 -0.96094,0 -1.7109,-0.25391 -2.25,-0.76562 -0.53125,-0.50781 -0.79688,-1.2227 -0.79688,-2.1406 0,-0.90625 0.26562,-1.6133 0.79688,-2.125 0.53906,-0.50781 1.2891,-0.76562 2.25,-0.76562 z"
         id="path41" />
    </symbol>
    <symbol
       id="q"
       overflow="visible">
      <path
         d="m 5.9688,-4.6094 c 0.22656,-0.34375 0.49219,-0.60156 0.79688,-0.78125 0.3125,-0.17578 0.64844,-0.26562 1.0156,-0.26562 0.63281,0 1.1172,0.19922 1.4531,0.59375 0.33203,0.38672 0.5,0.95312 0.5,1.7031 V -2e-5 h -1.7812 v -2.875 c 0.00781,-0.050781 0.015625,-0.097656 0.015625,-0.14062 v -0.20312 c 0,-0.38281 -0.058594,-0.66406 -0.17188,-0.84375 -0.11719,-0.17578 -0.30469,-0.26562 -0.5625,-0.26562 -0.33594,0 -0.59375,0.14062 -0.78125,0.42188 -0.17969,0.27344 -0.27344,0.66797 -0.28125,1.1875 V 5e-5 h -1.7812 v -2.875 c 0,-0.61328 -0.054687,-1.0078 -0.15625,-1.1875 -0.10547,-0.17578 -0.29297,-0.26562 -0.5625,-0.26562 -0.33594,0 -0.59375,0.14062 -0.78125,0.42188 -0.1875,0.27344 -0.28125,0.66797 -0.28125,1.1875 v 2.7188 h -1.7656 v -5.5312 h 1.7656 v 0.8125 c 0.21875,-0.3125 0.46875,-0.54688 0.75,-0.70312 0.28125,-0.15624 0.59375,-0.23438 0.9375,-0.23438 0.375,0 0.70703,0.09375 1,0.28125 0.30078,0.17969 0.52344,0.43359 0.67188,0.76562 z"
         id="path44" />
    </symbol>
    <symbol
       id="p"
       overflow="visible">
      <path
         d="m 0.92188,-7.375 h 2.125 l 2.6875,5.0625 V -7.375 h 1.7969 V 0 h -2.125 L 2.73438,-5.0625 V 0 h -1.8125 z"
         id="path47" />
    </symbol>
    <symbol
       id="o"
       overflow="visible">
      <path
         d="m 0.79688,-2.1562 v -3.375 h 1.7656 v 0.5625 1.125 0.90625 c 0,0.4375 0.00781,0.75781 0.03125,0.95312 0.019531,0.19922 0.054688,0.33984 0.10938,0.42188 0.070313,0.125 0.16406,0.21875 0.28125,0.28125 0.125,0.0625 0.25781,0.09375 0.40625,0.09375 0.375,0 0.66406,-0.14062 0.875,-0.42188 0.20703,-0.28906 0.3125,-0.6875 0.3125,-1.1875 v -2.7344 h 1.7656 V -3e-5 h -1.7656 v -0.79688 c -0.26172,0.32422 -0.54297,0.5625 -0.84375,0.71875 -0.30469,0.14453 -0.63281,0.21875 -0.98438,0.21875 -0.63672,0 -1.1211,-0.19141 -1.4531,-0.57812 -0.33594,-0.39453 -0.5,-0.96875 -0.5,-1.7188 z"
         id="path50" />
    </symbol>
    <symbol
       id="n"
       overflow="visible">
      <path
         d="M 6.4062,-3.3594 V 0 H 4.625 V -2.5781 C 4.625,-3.05466 4.613281,-3.38279 4.59375,-3.56248 4.570312,-3.73826 4.535156,-3.87498 4.48437,-3.96873 4.42187,-4.08201 4.32812,-4.17185 4.20312,-4.23435 4.08593,-4.29685 3.95312,-4.3281 3.79687,-4.3281 c -0.36719,0 -0.65625,0.14844 -0.875,0.4375 -0.21094,0.28125 -0.3125,0.67188 -0.3125,1.1719 V 1e-4 h -1.7656 v -5.5312 h 1.7656 v 0.8125 C 2.8789,-5.03891 3.16406,-5.27329 3.46875,-5.42172 3.76953,-5.57797 4.09766,-5.6561 4.45313,-5.6561 c 0.64453,0 1.1289,0.19922 1.4531,0.59375 0.33203,0.38672 0.5,0.95312 0.5,1.7031 z"
         id="path53" />
    </symbol>
    <symbol
       id="m"
       overflow="visible">
      <path
         d="m 0.92188,-7.375 h 3.1562 c 0.9375,0 1.6562,0.21094 2.1562,0.625 0.50781,0.41797 0.76562,1.0117 0.76562,1.7812 0,0.77344 -0.25781,1.3672 -0.76562,1.7812 -0.5,0.41797 -1.2188,0.625 -2.1562,0.625 h -1.25 V -1e-4 H 0.92188 Z M 2.82808,-6 v 2.0625 h 1.0469 c 0.375,0 0.66016,-0.085938 0.85938,-0.26562 0.19531,-0.17578 0.29688,-0.42969 0.29688,-0.76562 0,-0.32031 -0.10156,-0.57031 -0.29688,-0.75 -0.19922,-0.1875 -0.48438,-0.28125 -0.85938,-0.28125 z"
         id="path56" />
    </symbol>
    <symbol
       id="l"
       overflow="visible">
      <path
         d="m 0.84375,-5.5312 h 1.7656 v 5.4375 c 0,0.73828 -0.17969,1.3008 -0.53125,1.6875 C 1.72263,1.98833 1.20701,2.18755 0.5312,2.18755 h -0.85938 v -1.1719 h 0.29688 c 0.33203,0 0.5625,-0.078125 0.6875,-0.23438 0.125,-0.14844 0.1875,-0.4375 0.1875,-0.875 z m 0,-2.1562 h 1.7656 v 1.4531 h -1.7656 z"
         id="path59" />
    </symbol>
    <symbol
       id="k"
       overflow="visible">
      <path
         d="m 5.3125,-5.3594 v 1.4375 C 5.07031,-4.07815 4.83203,-4.19143 4.59375,-4.26565 c -0.24219,-0.082031 -0.49219,-0.125 -0.75,-0.125 -0.5,0 -0.88672,0.14844 -1.1562,0.4375 -0.27344,0.28125 -0.40625,0.67969 -0.40625,1.1875 0,0.52344 0.13281,0.92969 0.40625,1.2188 0.26953,0.28125 0.65625,0.42188 1.1562,0.42188 0.26953,0 0.53125,-0.039062 0.78125,-0.125 0.25,-0.082031 0.47656,-0.20312 0.6875,-0.35938 v 1.4531 C 5.03906,-0.0625 4.75781,0.00781 4.46875,0.0625 4.1875,0.113281 3.90625,0.140625 3.625,0.140625 c -1,0 -1.7812,-0.25391 -2.3438,-0.76562 -0.5625,-0.50781 -0.84375,-1.2227 -0.84375,-2.1406 0,-0.90625 0.28125,-1.6133 0.84375,-2.125 0.5625,-0.50781 1.3438,-0.76562 2.3438,-0.76562 0.28125,0 0.5625,0.027344 0.84375,0.078125 0.28125,0.042969 0.5625,0.11719 0.84375,0.21875 z"
         id="path62" />
    </symbol>
  </defs>
  <g
     id="g1075"
     transform="matrix(0.75943445,0,0,0.66964166,-41.375051,37.502009)"
     style="fill:#cbc743;fill-opacity:1">
    <path
       d="m 135.7,477.11 c -42.453,0 -42.453,-66.715 0,-66.715 38.41,0 40.434,-125.34 40.434,-169.82 0,-101.08 56.605,-161.73 125.34,-179.93 -6.0664,-30.324 16.172,-60.648 48.52,-60.648 32.348,0 56.605,30.324 50.543,60.648 66.715,18.195 123.32,78.844 123.32,179.93 0,44.477 4.043,169.82 40.434,169.82 44.477,0 44.477,66.715 0,66.715 z M 325.74,54.58 c 16.172,-2.0234 32.348,-2.0234 48.52,0 4.043,-14.152 -8.0859,-28.305 -24.262,-28.305 -16.172,0 -28.305,14.152 -24.262,28.305 z"
       fill-rule="evenodd"
       id="path67"
       style="fill:#cbc743;fill-opacity:1" />
    <path
       d="m 388.41,491.26 c 18.195,30.324 -4.043,68.738 -38.41,68.738 -34.367,0 -54.586,-38.41 -38.41,-68.738 h 76.824 z"
       fill-rule="evenodd"
       id="path69"
       style="fill:#cbc743;fill-opacity:1" />
  </g>
</svg>
