<?xml version="1.0" encoding="UTF-8" standalone="no"?>
<svg
   width="600"
   height="600"
   version="1.1"
   viewBox="0 0 450.00001 450.00001"
   id="svg150"
   sodipodi:docname="heart.svg"
   inkscape:version="1.1.1 (1:1.1+202109281949+c3084ef5ed)"
   xmlns:inkscape="http://www.inkscape.org/namespaces/inkscape"
   xmlns:sodipodi="http://sodipodi.sourceforge.net/DTD/sodipodi-0.dtd"
   xmlns="http://www.w3.org/2000/svg"
   xmlns:svg="http://www.w3.org/2000/svg">
  <sodipodi:namedview
     id="namedview152"
     pagecolor="#ffffff"
     bordercolor="#999999"
     borderopacity="1"
     inkscape:pageshadow="0"
     inkscape:pageopacity="0"
     inkscape:pagecheckerboard="0"
     inkscape:document-units="pt"
     showgrid="false"
     inkscape:zoom="0.88821429"
     inkscape:cx="466.66666"
     inkscape:cy="287.09288"
     inkscape:window-width="1920"
     inkscape:window-height="1015"
     inkscape:window-x="1024"
     inkscape:window-y="0"
     inkscape:window-maximized="1"
     inkscape:current-layer="svg150"
     units="px"
     height="600px" />
  <defs
     id="defs68">
    <symbol
       id="v"
       overflow="visible">
      <path
         d="M 9.1094,-0.54688 C 8.64065,-0.29688 8.14846,-0.11329 7.6406,0 7.12888,0.125 6.5976,0.1875 6.0468,0.1875 c -1.6484,0 -2.9531,-0.45703 -3.9219,-1.375 -0.96875,-0.92578 -1.4531,-2.1758 -1.4531,-3.75 0,-1.5938 0.48438,-2.8477 1.4531,-3.7656 0.96875,-0.92578 2.2734,-1.3906 3.9219,-1.3906 0.55078,0 1.082,0.0625 1.5938,0.1875 0.50781,0.125 1,0.30859 1.4688,0.54688 v 2.0625 C 8.62893,-7.61713 8.16018,-7.85151 7.7032,-7.99994 7.24226,-8.15619 6.75789,-8.23432 6.2501,-8.23432 c -0.90625,0 -1.625,0.29297 -2.1562,0.875 -0.52344,0.58594 -0.78125,1.3906 -0.78125,2.4219 0,1.0234 0.25781,1.8242 0.78125,2.4062 0.53125,0.58594 1.25,0.875 2.1562,0.875 0.50781,0 0.99219,-0.070312 1.4531,-0.21875 0.45703,-0.15625 0.92578,-0.39453 1.4062,-0.71875 z"
         id="path2" />
    </symbol>
    <symbol
       id="b"
       overflow="visible">
      <path
         d="M 6.6719,-5.4062 C 6.46096,-5.50776 6.25393,-5.58198 6.0469,-5.62495 5.83596,-5.664012 5.62893,-5.68745 5.4219,-5.68745 4.80471,-5.68745 4.3321,-5.48823 4,-5.0937 3.67578,-4.70698 3.51562,-4.14839 3.51562,-3.4218 V 1e-4 h -2.375 v -7.4375 h 2.375 v 1.2188 c 0.30078,-0.47656 0.64844,-0.82812 1.0469,-1.0469 0.39453,-0.22656 0.875,-0.34375 1.4375,-0.34375 0.070312,0 0.15625,0.00781 0.25,0.015625 0.09375,0 0.22656,0.011719 0.40625,0.03125 z"
         id="path5" />
    </symbol>
    <symbol
       id="a"
       overflow="visible">
      <path
         d="m 8.5625,-3.7344 v 0.67188 H 3 c 0.0625,0.5625 0.26562,0.98438 0.60938,1.2656 0.34375,0.27344 0.82812,0.40625 1.4531,0.40625 0.5,0 1.0078,-0.070313 1.5312,-0.21875 0.51953,-0.14453 1.0547,-0.36719 1.6094,-0.67188 v 1.8281 c -0.55469,0.21875 -1.1094,0.38281 -1.6719,0.48438 -0.5625,0.10156 -1.125,0.15625 -1.6875,0.15625 -1.3438,0 -2.3906,-0.33594 -3.1406,-1.0156 -0.75,-0.6875 -1.125,-1.6445 -1.125,-2.875 0,-1.2188 0.36328,-2.1719 1.0938,-2.8594 0.73828,-0.69531 1.75,-1.0469 3.0312,-1.0469 1.1641,0 2.0977,0.35547 2.7969,1.0625 0.70703,0.69922 1.0625,1.6367 1.0625,2.8125 z M 6.125,-4.53128 c 0,-0.44531 -0.13672,-0.80469 -0.40625,-1.0781 -0.26172,-0.28125 -0.60547,-0.42188 -1.0312,-0.42188 -0.46094,0 -0.83594,0.13281 -1.125,0.39062 -0.28125,0.26172 -0.46094,0.63281 -0.53125,1.1094 z"
         id="path8" />
    </symbol>
    <symbol
       id="d"
       overflow="visible">
      <path
         d="m 4.4688,-3.3438 c -0.49219,0 -0.85938,0.085938 -1.1094,0.25 -0.25,0.16797 -0.375,0.41797 -0.375,0.75 0,0.30469 0.097656,0.53906 0.29688,0.70312 0.19531,0.16797 0.47656,0.25 0.84375,0.25 0.44531,0 0.82031,-0.15625 1.125,-0.46875 0.30078,-0.32031 0.45312,-0.72656 0.45312,-1.2188 V -3.34385 Z M 8.1094,-4.23442 V -2e-5 H 5.7032 v -1.1094 c -0.3125,0.46094 -0.67188,0.79297 -1.0781,1 -0.39844,0.19531 -0.88281,0.29688 -1.4531,0.29688 -0.76172,0 -1.3867,-0.22266 -1.875,-0.67188 -0.48047,-0.44531 -0.71875,-1.0312 -0.71875,-1.75 0,-0.86328 0.30078,-1.5 0.90625,-1.9062 0.60156,-0.41406 1.5469,-0.625 2.8281,-0.625 H 5.7032 V -4.9375 c 0,-0.38281 -0.15234,-0.66016 -0.45312,-0.82812 -0.29297,-0.17578 -0.75,-0.26562 -1.375,-0.26562 -0.51172,0 -0.98438,0.054688 -1.4219,0.15625 -0.4375,0.09375 -0.84375,0.24609 -1.2188,0.45312 v -1.8125 c 0.50781,-0.125 1.0195,-0.21875 1.5312,-0.28125 0.50781,-0.0625 1.0234,-0.09375 1.5469,-0.09375 1.332,0 2.2969,0.26562 2.8906,0.79688 0.60156,0.52344 0.90625,1.3828 0.90625,2.5781 z"
         id="path11" />
    </symbol>
    <symbol
       id="c"
       overflow="visible">
      <path
         d="m 3.7344,-9.5469 v 2.1094 h 2.4531 v 1.7031 H 3.7344 v 3.1562 c 0,0.34375 0.066406,0.57812 0.20312,0.70312 0.14453,0.11719 0.42188,0.17188 0.82812,0.17188 h 1.2188 V -1e-4 h -2.0469 c -0.9375,0 -1.6055,-0.19141 -2,-0.57812 -0.38672,-0.39453 -0.57812,-1.0625 -0.57812,-2 v -3.1562 h -1.1875 v -1.7031 h 1.1875 v -2.1094 z"
         id="path14" />
    </symbol>
    <symbol
       id="l"
       overflow="visible">
      <path
         d="m 6.2031,-6.3438 v -3.9844 H 8.5937 V -2e-4 H 6.2031 V -1.0783 C 5.86716,-0.6408 5.50388,-0.31658 5.1093,-0.10955 4.72258,0.08576 4.26946,0.18733 3.7499,0.18733 c -0.91797,0 -1.6719,-0.35938 -2.2656,-1.0781 -0.58594,-0.72656 -0.875,-1.6641 -0.875,-2.8125 0,-1.1445 0.28906,-2.082 0.875,-2.8125 0.59375,-0.72656 1.3477,-1.0938 2.2656,-1.0938 0.50781,0 0.96094,0.10547 1.3594,0.3125 0.39453,0.19922 0.75781,0.51562 1.0938,0.95312 z m -1.5625,4.8125 c 0.5,0 0.88281,-0.17969 1.1562,-0.54688 0.26953,-0.375 0.40625,-0.91406 0.40625,-1.625 0,-0.70703 -0.13672,-1.25 -0.40625,-1.625 -0.27344,-0.375 -0.65625,-0.5625 -1.1562,-0.5625 -0.51172,0 -0.90234,0.1875 -1.1719,0.5625 -0.26172,0.375 -0.39062,0.91797 -0.39062,1.625 0,0.71094 0.12891,1.25 0.39062,1.625 0.26953,0.36719 0.66016,0.54688 1.1719,0.54688 z"
         id="path17" />
    </symbol>
    <symbol
       id="k"
       overflow="visible">
      <path
         d="m 5.0938,-1.5312 c 0.50781,0 0.89844,-0.17969 1.1719,-0.54688 0.26953,-0.375 0.40625,-0.91406 0.40625,-1.625 0,-0.70703 -0.13672,-1.25 -0.40625,-1.625 -0.27344,-0.375 -0.66406,-0.5625 -1.1719,-0.5625 -0.51172,0 -0.90234,0.1875 -1.1719,0.5625 -0.27344,0.375 -0.40625,0.91797 -0.40625,1.625 0,0.69922 0.13281,1.2344 0.40625,1.6094 0.26953,0.375 0.66016,0.5625 1.1719,0.5625 z M 3.5157,-6.3437 c 0.33203,-0.4375 0.69531,-0.75391 1.0938,-0.95312 0.39453,-0.20703 0.85156,-0.3125 1.375,-0.3125 0.91406,0 1.6641,0.36719 2.25,1.0938 0.59375,0.73047 0.89062,1.668 0.89062,2.8125 0,1.1484 -0.29688,2.0859 -0.89062,2.8125 -0.58594,0.71875 -1.3359,1.0781 -2.25,1.0781 -0.52344,0 -0.98047,-0.10156 -1.375,-0.29688 C 4.21106,-0.31633 3.84778,-0.64055 3.5157,-1.07805 V 5e-5 h -2.375 v -10.328 h 2.375 z"
         id="path20" />
    </symbol>
    <symbol
       id="j"
       overflow="visible">
      <path
         d="m 0.17188,-7.4375 h 2.375 l 2,5.0469 1.6875,-5.0469 h 2.375 l -3.125,8.1406 c -0.3125,0.82031 -0.67969,1.3984 -1.0938,1.7344 -0.41797,0.33203 -0.96875,0.5 -1.6562,0.5 h -1.375 V 1.375 h 0.75 c 0.39453,0 0.6875,-0.070312 0.875,-0.20312 0.1875,-0.125 0.32812,-0.35547 0.42188,-0.6875 L 3.484385,0.28126 Z"
         id="path23" />
    </symbol>
    <symbol
       id="i"
       overflow="visible">
      <path
         d="M 1.25,-9.9062 H 3.7969 V 0 H 1.25 Z"
         id="path26" />
    </symbol>
    <symbol
       id="h"
       overflow="visible">
      <path
         d="m 8.0312,-6.2031 c 0.30078,-0.45703 0.65625,-0.80469 1.0625,-1.0469 0.41406,-0.23828 0.875,-0.35938 1.375,-0.35938 0.85156,0 1.5039,0.26562 1.9531,0.79688 0.44531,0.52344 0.67188,1.2812 0.67188,2.2812 v 4.5312 h -2.3906 v -3.875 -0.1875 c 0.0078,-0.0625 0.01563,-0.14844 0.01563,-0.26562 0,-0.51953 -0.07813,-0.89844 -0.23438,-1.1406 -0.15625,-0.23828 -0.40625,-0.35938 -0.75,-0.35938 -0.46094,0 -0.8125,0.1875 -1.0625,0.5625 -0.24219,0.375 -0.36719,0.91406 -0.375,1.6094 v 3.6562 h -2.375 v -3.875 c 0,-0.82031 -0.074219,-1.3516 -0.21875,-1.5938 -0.14844,-0.23828 -0.40234,-0.35938 -0.76562,-0.35938 -0.44922,0 -0.79688,0.1875 -1.0469,0.5625 -0.25002,0.375 -0.375,0.91406 -0.375,1.6094 v 3.6562 h -2.3906 v -7.4375 h 2.3906 v 1.0938 c 0.28906,-0.41406 0.625,-0.72656 1,-0.9375 0.38281,-0.21875 0.80469,-0.32812 1.2656,-0.32812 0.50781,0 0.95703,0.125 1.3438,0.375 0.39453,0.24219 0.69531,0.58594 0.90625,1.0312 z"
         id="path29" />
    </symbol>
    <symbol
       id="g"
       overflow="visible">
      <path
         d="M 8.6094,-4.5312 V 0 H 6.2188 v -3.4688 c 0,-0.63281 -0.015625,-1.0703 -0.046875,-1.3125 -0.023437,-0.25 -0.070313,-0.42969 -0.14062,-0.54688 -0.09375,-0.15625 -0.21875,-0.27344 -0.375,-0.35938 -0.15625,-0.09375 -0.33984,-0.14062 -0.54688,-0.14062 -0.49219,0 -0.88281,0.19531 -1.1719,0.57812 -0.28125,0.38672 -0.42188,0.91797 -0.42188,1.5938 V -6e-5 h -2.375 v -7.4375 h 2.375 v 1.0938 c 0.36328,-0.4375 0.74219,-0.75391 1.1406,-0.95312 0.40625,-0.20703 0.85156,-0.3125 1.3438,-0.3125 0.85156,0 1.5,0.26562 1.9375,0.79688 0.44531,0.52344 0.67188,1.2812 0.67188,2.2812 z"
         id="path32" />
    </symbol>
    <symbol
       id="u"
       overflow="visible">
      <path
         d="m 6.9531,-7.2031 v 1.8125 C 6.44138,-5.60935 5.9453,-5.76951 5.4687,-5.87498 4.99995,-5.97654 4.55464,-6.03123 4.1406,-6.03123 c -0.46094,0 -0.79688,0.058594 -1.0156,0.17188 -0.21875,0.11719 -0.32812,0.28906 -0.32812,0.51562 0,0.1875 0.082031,0.33594 0.25,0.4375 0.16406,0.10547 0.46094,0.18359 0.89062,0.23438 l 0.42188,0.046875 c 1.2188,0.15625 2.0352,0.41406 2.4531,0.76562 0.42578,0.35547 0.64062,0.91406 0.64062,1.6719 0,0.79297 -0.29688,1.3867 -0.89062,1.7812 -0.58594,0.39844 -1.4531,0.59375 -2.6094,0.59375 -0.49219,0 -1,-0.042969 -1.5312,-0.125 -0.52344,-0.070312 -1.0586,-0.17969 -1.6094,-0.32812 v -1.8125 c 0.47656,0.23047 0.96094,0.40234 1.4531,0.51562 0.5,0.11719 1.0078,0.17188 1.5312,0.17188 0.45703,0 0.80078,-0.0625 1.0312,-0.1875 0.23828,-0.125 0.35938,-0.31641 0.35938,-0.57812 0,-0.20703 -0.085938,-0.36328 -0.25,-0.46875 -0.15625,-0.10156 -0.47656,-0.1875 -0.95312,-0.25 L 3.56236,-2.92187 c -1.0547,-0.13281 -1.793,-0.37891 -2.2188,-0.73438 -0.42969,-0.35156 -0.64062,-0.89844 -0.64062,-1.6406 0,-0.78125 0.26953,-1.3594 0.8125,-1.7344 0.53906,-0.38281 1.3672,-0.57812 2.4844,-0.57812 0.4375,0 0.89453,0.03125 1.375,0.09375 0.47656,0.0625 1.0039,0.16797 1.5781,0.3125 z"
         id="path35" />
    </symbol>
    <symbol
       id="f"
       overflow="visible">
      <path
         d="M 8.6094,-4.5312 V 0 H 6.2188 v -3.4531 c 0,-0.64453 -0.015625,-1.0859 -0.046875,-1.3281 -0.023437,-0.25 -0.070313,-0.42969 -0.14062,-0.54688 -0.09375,-0.15625 -0.21875,-0.27344 -0.375,-0.35938 -0.15625,-0.09375 -0.33984,-0.14062 -0.54688,-0.14062 -0.49219,0 -0.88281,0.19531 -1.1719,0.57812 -0.28125,0.38672 -0.42188,0.91797 -0.42188,1.5938 V 4e-5 h -2.375 v -10.328 h 2.375 v 3.9844 c 0.36328,-0.4375 0.74219,-0.75391 1.1406,-0.95312 0.40625,-0.20703 0.85156,-0.3125 1.3438,-0.3125 0.85156,0 1.5,0.26562 1.9375,0.79688 0.44531,0.52344 0.67188,1.2812 0.67188,2.2812 z"
         id="path38" />
    </symbol>
    <symbol
       id="t"
       overflow="visible">
      <path
         d="m 1.1406,-7.4375 h 2.375 V 0 h -2.375 z m 0,-2.8906 h 2.375 v 1.9375 h -2.375 z"
         id="path41" />
    </symbol>
    <symbol
       id="s"
       overflow="visible">
      <path
         d="m 1.1406,-10.328 h 2.375 v 5.625 L 6.25,-7.4374 H 9.0156 L 5.3906,-4.0155 9.2968,1e-4 H 6.4218 L 3.5156,-3.0937 V 1e-4 h -2.375 z"
         id="path44" />
    </symbol>
    <symbol
       id="r"
       overflow="visible">
      <path
         d="m 6.0312,-10.328 v 1.5625 H 4.7187 c -0.33594,0 -0.57031,0.0625 -0.70312,0.1875 -0.13672,0.11719 -0.20312,0.32422 -0.20312,0.625 v 0.51562 h 2.0312 v 1.7031 h -2.0312 v 5.7344 h -2.375 v -5.7344 h -1.1719 v -1.7031 h 1.1719 V -7.953 c 0,-0.8125 0.22266,-1.4102 0.67188,-1.7969 0.45703,-0.38281 1.1602,-0.57812 2.1094,-0.57812 z"
         id="path47" />
    </symbol>
    <symbol
       id="e"
       overflow="visible">
      <path
         d="m 4.6719,-5.9219 c -0.52344,0 -0.92188,0.19531 -1.2031,0.57812 -0.27344,0.375 -0.40625,0.92188 -0.40625,1.6406 0,0.71094 0.13281,1.2578 0.40625,1.6406 0.28125,0.375 0.67969,0.5625 1.2031,0.5625 0.51953,0 0.91406,-0.1875 1.1875,-0.5625 0.28125,-0.38281 0.42188,-0.92969 0.42188,-1.6406 0,-0.71875 -0.14062,-1.2656 -0.42188,-1.6406 C 5.58596,-5.72659 5.19143,-5.9219 4.6719,-5.9219 Z m 0,-1.6875 c 1.2812,0 2.2812,0.34375 3,1.0312 0.7188,0.68745 1.0781,1.6484 1.0781,2.875 0,1.2188 -0.35938,2.1719 -1.0781,2.8594 -0.71872,0.6875 -1.7188,1.0312 -3,1.0312 -1.2812,0 -2.2891,-0.34375 -3.0156,-1.0312 -0.71875,-0.6875 -1.0781,-1.6406 -1.0781,-2.8594 0,-1.2266 0.35938,-2.1875 1.0781,-2.875 0.72656,-0.6875 1.7344,-1.0312 3.0156,-1.0312 z"
         id="path50" />
    </symbol>
    <symbol
       id="q"
       overflow="visible">
      <path
         d="m 1.25,-9.9062 h 2.8594 l 3.5938,6.7969 v -6.7969 h 2.4219 V 0 H 7.2813 L 3.6719,-6.7969 V 0 H 1.25 Z"
         id="path53" />
    </symbol>
    <symbol
       id="p"
       overflow="visible">
      <path
         d="m 1.0625,-2.8906 v -4.5469 h 2.3906 v 0.75 c 0,0.39844 -0.00781,0.90234 -0.015625,1.5156 v 1.2188 c 0,0.59375 0.015625,1.0273 0.046875,1.2969 0.03125,0.26172 0.082031,0.44922 0.15625,0.5625 0.10156,0.15625 0.23438,0.27734 0.39062,0.35938 0.15625,0.085937 0.33203,0.125 0.53125,0.125 0.5,0 0.89062,-0.1875 1.1719,-0.5625 0.28125,-0.38281 0.42188,-0.91406 0.42188,-1.5938 v -3.6719 h 2.375 V -2e-5 h -2.375 v -1.0781 c -0.35547,0.4375 -0.73438,0.76172 -1.1406,0.96875 -0.39844,0.19531 -0.83594,0.29688 -1.3125,0.29688 -0.86719,0 -1.5234,-0.25781 -1.9688,-0.78125 -0.44922,-0.53125 -0.67188,-1.2969 -0.67188,-2.2969 z"
         id="path56" />
    </symbol>
    <symbol
       id="o"
       overflow="visible">
      <path
         d="m 1.25,-9.9062 h 4.2344 c 1.2578,0 2.2266,0.28125 2.9062,0.84375 0.67578,0.55469 1.0156,1.3516 1.0156,2.3906 0,1.0312 -0.33984,1.8281 -1.0156,2.3906 -0.67969,0.5625 -1.6484,0.84375 -2.9062,0.84375 H 3.7969 V 0 H 1.25 Z m 2.5469,1.8438 v 2.7656 h 1.4219 c 0.48828,0 0.86719,-0.11719 1.1406,-0.35938 0.26953,-0.23828 0.40625,-0.57812 0.40625,-1.0156 0,-0.44531 -0.13672,-0.78906 -0.40625,-1.0312 C 6.08596,-7.94126 5.70706,-8.06236 5.2188,-8.06236 Z"
         id="path59" />
    </symbol>
    <symbol
       id="n"
       overflow="visible">
      <path
         d="m 1.1406,-7.4375 h 2.375 v 7.3125 c 0,0.98828 -0.24219,1.7422 -0.71875,2.2656 -0.48047,0.53125 -1.1719,0.79688 -2.0781,0.79688 h -1.1719 v -1.5625 h 0.40625 c 0.45703,0 0.76953,-0.10547 0.9375,-0.3125 0.16406,-0.19922 0.25,-0.59375 0.25,-1.1875 z m 0,-2.8906 h 2.375 v 1.9375 h -2.375 z"
         id="path62" />
    </symbol>
    <symbol
       id="m"
       overflow="visible">
      <path
         d="m 7.1562,-7.2031 v 1.9375 C 6.83198,-5.48435 6.50386,-5.64451 6.17182,-5.74998 5.8476,-5.86326 5.50776,-5.92186 5.15622,-5.92186 c -0.65625,0 -1.1719,0.19922 -1.5469,0.59375 -0.36719,0.38672 -0.54688,0.92969 -0.54688,1.625 0,0.6875 0.17969,1.2305 0.54688,1.625 0.375,0.38672 0.89062,0.57812 1.5469,0.57812 0.375,0 0.72656,-0.054688 1.0625,-0.17188 0.33203,-0.11328 0.64453,-0.27344 0.9375,-0.48438 v 1.9375 c -0.375,0.13672 -0.75781,0.23438 -1.1406,0.29688 -0.38672,0.070313 -0.77344,0.10938 -1.1562,0.10938 -1.3359,0 -2.3828,-0.34375 -3.1406,-1.0312 -0.76172,-0.6875 -1.1406,-1.6406 -1.1406,-2.8594 0,-1.2266 0.37891,-2.1875 1.1406,-2.875 0.75781,-0.6875 1.8047,-1.0312 3.1406,-1.0312 0.39453,0 0.78125,0.039063 1.1562,0.10938 0.375,0.0625 0.75391,0.16406 1.1406,0.29688 z"
         id="path65" />
    </symbol>
  </defs>
  <path
     d="M 411.23658,130.11131 C 390.09998,9.3611887 257.65771,7.3455617 224.99982,120.22336 192.34435,7.3482407 59.890026,9.3638677 38.763056,130.11131 19.592068,239.665 224.99982,412.5 224.99982,412.5 c 0,0 205.41077,-172.835 186.23676,-282.38869 z"
     id="path70"
     style="fill:#d3557f;fill-opacity:1;stroke-width:0.635326" />
</svg>
